<?xml version="1.0" encoding="UTF-8" standalone="no"?>
<!-- Created with Inkscape (http://www.inkscape.org/) -->

<svg
   width="1080.981"
   height="422.70013"
   viewBox="0 0 286.00954 111.83942"
   version="1.1"
   id="svg5"
   xml:space="preserve"
   inkscape:export-filename="logo-iionu-01.png"
   inkscape:export-xdpi="96"
   inkscape:export-ydpi="96"
   inkscape:version="1.2.1 (9c6d41e410, 2022-07-14)"
   sodipodi:docname="logo-iionu-01.svg"
   xmlns:inkscape="http://www.inkscape.org/namespaces/inkscape"
   xmlns:sodipodi="http://sodipodi.sourceforge.net/DTD/sodipodi-0.dtd"
   xmlns="http://www.w3.org/2000/svg"
   xmlns:svg="http://www.w3.org/2000/svg"><sodipodi:namedview
     id="namedview7"
     pagecolor="#ffffff"
     bordercolor="#000000"
     borderopacity="0.25"
     inkscape:showpageshadow="2"
     inkscape:pageopacity="0.0"
     inkscape:pagecheckerboard="0"
     inkscape:deskcolor="#d1d1d1"
     inkscape:document-units="mm"
     showgrid="false"
     inkscape:zoom="0.50646226"
     inkscape:cx="154.0095"
     inkscape:cy="401.80684"
     inkscape:window-width="1920"
     inkscape:window-height="991"
     inkscape:window-x="-9"
     inkscape:window-y="-9"
     inkscape:window-maximized="1"
     inkscape:current-layer="layer2" /><defs
     id="defs2"><filter
       style="color-interpolation-filters:sRGB"
       inkscape:label="Drop Shadow"
       id="filter2015"
       x="-0.065498985"
       y="-0.19760247"
       width="1.130998"
       height="1.4716871"><feFlood
         flood-opacity="0.498039"
         flood-color="rgb(0,0,0)"
         result="flood"
         id="feFlood2005" /><feComposite
         in="flood"
         in2="SourceGraphic"
         operator="in"
         result="composite1"
         id="feComposite2007" /><feGaussianBlur
         in="composite1"
         stdDeviation="2.7"
         result="blur"
         id="feGaussianBlur2009" /><feOffset
         dx="0"
         dy="2.36593"
         result="offset"
         id="feOffset2011" /><feComposite
         in="SourceGraphic"
         in2="offset"
         operator="over"
         result="composite2"
         id="feComposite2013" /></filter><filter
       style="color-interpolation-filters:sRGB"
       inkscape:label="Drop Shadow"
       id="filter4005"
       x="-0.027871909"
       y="-0.08408615"
       width="1.0557438"
       height="1.2032082"><feFlood
         flood-opacity="0.498039"
         flood-color="rgb(0,0,0)"
         result="flood"
         id="feFlood3995" /><feComposite
         in="flood"
         in2="SourceGraphic"
         operator="in"
         result="composite1"
         id="feComposite3997" /><feGaussianBlur
         in="composite1"
         stdDeviation="2"
         result="blur"
         id="feGaussianBlur3999" /><feOffset
         dx="0"
         dy="2"
         result="offset"
         id="feOffset4001" /><feComposite
         in="SourceGraphic"
         in2="offset"
         operator="over"
         result="composite2"
         id="feComposite4003" /></filter></defs><g
     inkscape:groupmode="layer"
     id="layer2"
     inkscape:label="Layer 2"
     transform="matrix(0.93426659,0,0,0.93426659,-5.3107467,-45.849977)"
     style="stroke-width:1.07036"><g
       id="g670"
       transform="matrix(1.6531949,0,0,1.6531949,-108.36011,55.514052)"
       style="stroke-width:0.647449;filter:url(#filter2015)"><g
         aria-label="iiONu"
         id="text357"
         style="font-weight:bold;font-size:60.5795px;font-family:Fontin;-inkscape-font-specification:'Fontin Bold';text-align:center;text-anchor:middle;fill:#d40000;stroke-width:0.0856515;filter:url(#filter4005)"><path
           id="path436"
           style="fill:#d40000;stroke-width:0.0856515"
           d="M 87.658203,2.5917969 C 81.744405,2.8972597 76.91075,8.8620533 77.672447,14.703179 c 0.341212,1.431135 0.05318,3.096248 -1.128029,4.069999 -0.31213,0.426758 -1.222809,0.365057 -1.06101,1.012364 0.04826,3.821294 0.03129,7.64296 0.03612,11.464458 1.025349,-0.02948 2.050785,-0.05585 3.076172,-0.08398 -0.133813,9.227859 -0.264826,18.455761 -0.400391,27.683593 7.559896,0 15.119792,0 22.679691,0 C 99.066537,47.98287 99.294851,36.853324 99.408203,25.830078 99.240422,23.444216 98.608318,21.105507 97.662109,18.914062 99.798069,14.593793 99.17321,8.8102833 95.546361,5.4700489 93.419436,3.5419422 90.521618,2.5122215 87.658203,2.5917969 Z" /><path
           id="path438"
           style="fill:#d40000;stroke-width:0.0856515"
           d="m 105.5,2.5976562 c -5.842228,0.5376653 -10.438807,6.4923189 -9.6875,12.2714848 -0.0315,1.752722 -0.861828,3.441938 -2.146484,4.61914 0.0045,3.920574 0.01184,7.841145 0.01563,11.761719 1.025349,-0.02948 2.050785,-0.05585 3.076171,-0.08398 -0.133813,9.227859 -0.264826,18.455761 -0.40039,27.683593 7.554693,0 15.109373,0 22.664063,0 -1.7909,-10.882334 -1.57306,-22.023515 -1.45704,-33.060547 -0.0698,-2.257741 -0.86174,-4.404049 -1.47521,-6.54335 0.0593,-2.125485 1.29635,-4.096435 0.96235,-6.258148 -0.0903,-4.5231219 -3.32664,-8.8992447 -7.78753,-9.9619412 C 108.04181,2.6861381 106.76789,2.5407666 105.5,2.5976562 Z" /><path
           id="path440"
           style="fill:#d40000;stroke-width:0.0856515"
           d="m 136.96875,4.8222656 c -10.7131,0.4149728 -20.82083,8.0683724 -23.84757,18.4006134 -2.79905,9.036332 -1.60224,19.437274 3.93289,27.21655 4.35356,6.072169 11.91384,9.499355 19.33168,9.197549 10.77412,-0.366388 20.85024,-8.041301 24.10905,-18.310822 2.78819,-8.519055 2.04385,-18.32258 -2.74223,-25.995739 C 153.46948,8.2968353 145.07235,4.4529363 136.96875,4.8222656 Z" /><path
           id="path442"
           style="fill:#d40000;stroke-width:0.0856515"
           d="m 166.39453,4.7167969 c -3.02878,0.2566577 -6.09004,1.2327259 -8.45117,3.1894531 -0.75522,1.0632158 -0.84147,2.419194 -1.28711,3.613281 -0.46554,1.903007 -0.0167,3.892089 0.78407,5.636178 1.12696,3.644851 0.38363,7.488398 0.55059,11.227102 -0.0265,10.155599 -0.051,20.311204 -0.0788,30.466798 6.41601,0 12.83203,0 19.24805,0 -0.72736,-5.97613 -1.45864,-11.951786 -2.1875,-17.927734 5.43654,5.975598 10.87034,11.953702 16.30859,17.927734 5.02539,0 10.05078,0 15.07617,0 -0.98424,-16.413339 -0.32384,-32.859721 0.11524,-49.2792965 -0.87418,-2.0165767 -3.0137,-2.9745234 -4.86258,-3.892548 -4.30938,-1.777804 -9.76478,-1.2016842 -13.18325,2.1236767 -2.44674,2.4302858 -3.17256,5.9363318 -4.86042,8.8372308 -0.66221,0.454211 -1.28155,-0.365194 -1.66053,-0.837332 -3.1005,-3.606883 -6.29961,-7.127565 -9.44494,-10.6958712 -1.99432,-0.3608218 -4.04412,-0.4621685 -6.06641,-0.3886719 z" /><path
           id="path444"
           style="fill:#d40000;stroke-width:0.0856515"
           d="m 231.33984,14.578125 c -3.22422,0.108748 -6.14365,1.64085 -9.08985,2.760691 -1.72001,0.04522 -2.90752,-1.482198 -4.50502,-1.891621 -5.15777,-1.83324 -11.17491,-0.314461 -15.18833,3.302805 -2.36526,2.383177 -2.59636,6.392031 -0.77118,9.15844 0.81075,1.297152 1.68428,2.647546 1.7204,4.232185 0.35415,3.534728 0.0582,7.091077 0.16446,10.6355 0.0167,3.951993 0.52386,8.206602 3.11679,11.370359 3.94376,4.894366 11.05176,6.752785 16.95077,4.697038 1.7702,-0.568585 3.68879,-1.106839 5.52637,-0.493896 1.49008,0.457529 3.11428,1.084743 4.76356,1.101091 4.06209,0.262978 8.28995,-0.93107 11.43546,-3.553404 1.88514,-1.767106 2.36996,-4.509514 2.17872,-6.98598 -0.0341,-1.47085 0.23331,-3.117303 -0.57363,-4.428911 -1.04539,-1.028589 -2.86317,-0.888106 -3.72036,-2.186164 -0.89315,-1.71252 -0.32627,-3.717044 -0.42921,-5.558558 -0.0601,-5.441606 0.41127,-11.03337 -1.25277,-16.304106 -1.79933,-3.837314 -6.15149,-6.139863 -10.32618,-5.855469 z" /></g><g
         aria-label="iiONu"
         id="text357-2"
         style="font-weight:bold;font-size:60.5795px;font-family:Fontin;-inkscape-font-specification:'Fontin Bold';text-align:center;text-anchor:middle;fill:#ffeeaa;stroke-width:0.0856515"><path
           id="path1420"
           d="m 88.076172,8.2753906 c -2.916459,0.087369 -5.332644,3.1074954 -4.694348,5.9742344 0.514156,2.952586 4.031889,4.809852 6.780285,3.650766 2.350267,-0.909423 3.719017,-3.756396 2.858233,-6.147044 C 92.36208,9.6760706 90.286511,8.1162014 88.076172,8.2753906 Z m 0.130859,11.9843754 c -2.521612,0.09804 -4.876842,1.183575 -6.992187,2.488281 0.113301,0.768793 -0.187478,1.580514 0.236328,2.318359 1.416801,0.100359 2.103921,1.630194 2.429015,2.825413 0.545686,1.949326 0.47161,3.972173 0.417935,6.071427 -0.101058,6.391526 -0.199302,12.783663 -0.300075,19.175426 3.429687,0 6.859375,0 10.289062,0 -0.956491,-7.131058 -0.758953,-14.332228 -0.718995,-21.517975 0.09901,-2.953286 0.792971,-6.259587 -0.646239,-9.06015 -0.948003,-1.663692 -2.846072,-2.470582 -4.714844,-2.300781 z"
           style="fill:#ffeeaa;stroke-width:0.0856515" /><path
           id="path1422"
           d="m 106.23828,8.2753906 c -2.91636,0.087454 -5.33294,3.1074014 -4.69435,5.9742344 0.51416,2.952586 4.03189,4.809852 6.78029,3.650766 2.35027,-0.909423 3.71902,-3.756396 2.85823,-6.147044 -0.65826,-2.0772764 -2.73383,-3.6371456 -4.94417,-3.4779564 z m 0.13086,11.9843754 c -2.52161,0.09804 -4.87684,1.183575 -6.992187,2.488281 0.113302,0.768793 -0.187478,1.580514 0.236328,2.318359 1.416799,0.100359 2.103919,1.630194 2.429019,2.825413 0.54568,1.949326 0.47161,3.972173 0.41793,6.071427 -0.10106,6.391526 -0.1993,12.783663 -0.30007,19.175426 3.42968,0 6.85937,0 10.28906,0 -0.95732,-7.131085 -0.75728,-14.332174 -0.72028,-21.518017 0.10863,-2.940961 0.74583,-6.076042 -0.53651,-8.860834 -0.85704,-1.718133 -2.82003,-2.673654 -4.70334,-2.501729 l -0.1,0.0014 z"
           style="fill:#ffeeaa;stroke-width:0.0856515" /><path
           id="path1424"
           d="m 138.11914,10.523438 c -6.58506,-0.06008 -13.20227,3.183625 -16.86733,8.714485 -3.87386,5.682738 -4.70024,13.012922 -3.30795,19.642861 0.92012,4.438566 3.22362,8.655283 6.81018,11.489089 2.98157,2.429598 6.84168,3.747855 10.6916,3.557068 5.77847,-0.06787 11.55402,-2.502284 15.39616,-6.862931 4.68757,-5.32932 6.34895,-12.841678 5.38329,-19.773653 -0.68754,-4.963911 -2.8353,-9.992998 -6.91701,-13.087825 -3.16437,-2.452696 -7.18762,-3.773688 -11.18894,-3.679094 z m -1.44141,6.044921 c 2.84503,0.318857 4.92078,2.679078 6.23696,5.044007 2.782,5.065126 3.4029,11.129842 2.41558,16.769367 -0.58007,3.029044 -1.80017,6.051025 -4.09349,8.236954 -1.82228,1.654542 -4.75852,1.839824 -6.75374,0.378753 -2.7002,-1.805603 -4.256,-4.899495 -5.26877,-7.861701 -0.79509,-2.440828 -1.15864,-4.92323 -1.24149,-7.416153 -0.0998,-4.304214 0.64656,-8.920238 3.33814,-12.449693 1.27007,-1.632151 3.21121,-2.943909 5.36681,-2.701534 z"
           style="fill:#ffeeaa;stroke-width:0.0856515" /><path
           id="path1426"
           d="m 167.53711,10.314453 c -1.67568,0.13283 -3.42783,0.29482 -4.90039,1.181641 -0.14728,0.718993 -0.76543,1.432064 -0.56448,2.20504 1.54401,1.736239 1.68655,4.178749 1.60962,6.388704 0.049,11.01629 -0.0123,22.032592 -0.0432,33.048834 2.36524,0 4.73047,0 7.09571,0 -0.75839,-6.968434 -0.67495,-13.972461 -0.6543,-20.980469 0.0363,-1.80972 0.0791,-3.619536 0.082,-5.429687 1.21182,1.993491 2.99735,3.530711 4.49382,5.298985 6.38343,7.037189 12.76802,14.073319 19.15071,21.111171 2.17253,0 4.34505,0 6.51758,0 -0.61798,-11.197454 -0.26299,-22.450658 0.0758,-33.664792 0.0917,-2.649342 0.21403,-5.297534 0.3148,-7.946536 -1.80776,-1.510706 -4.34862,-1.280266 -6.47907,-0.737793 -0.88277,0.170621 -1.99509,0.502398 -2.18008,1.521919 -0.33822,0.563079 -0.61345,1.437104 0.0615,1.874077 1.57653,2.086917 1.63003,4.736241 1.57473,7.240234 -0.008,5.182686 0.008,10.368234 -0.10598,15.548828 0.10117,0.691032 -0.24581,-0.05467 -0.46288,-0.252254 -2.34618,-2.625067 -4.74364,-5.207579 -7.09654,-7.828711 -5.49931,-6.050057 -10.96572,-12.122521 -16.35464,-18.27255 -0.61018,-0.47604 -1.426,-0.237316 -2.13477,-0.306641 z"
           style="fill:#ffeeaa;stroke-width:0.0856515" /><path
           id="path1428"
           d="m 231.31836,20.267578 c -2.35464,0.199902 -4.62086,1.167437 -6.5293,2.53711 0.16123,0.746488 -0.3524,1.911881 0.5762,2.298403 1.74228,0.628257 2.18849,2.688058 2.39638,4.318617 0.31786,3.168511 0.0703,6.401426 0.1032,9.615691 -0.0214,1.900294 -0.0427,3.800588 -0.0641,5.700882 -1.69044,1.698644 -4.10828,2.461926 -6.43187,2.349776 -1.59784,0.02194 -2.46011,-1.683782 -2.5753,-3.07281 -0.55025,-3.728605 -0.18342,-7.507643 -0.17701,-11.25828 0.0419,-2.817974 0.31439,-5.666384 -0.10683,-8.465951 -0.31449,-1.713653 -1.44755,-3.422368 -3.24709,-3.795009 -3.01994,-0.786354 -6.09839,0.521731 -8.65191,2.060209 -0.6053,0.17581 -0.16258,0.879712 -0.33929,1.340268 -0.0996,0.633285 0.27304,1.249724 0.92969,1.34375 1.60184,0.918864 1.72497,2.975419 1.99439,4.604913 0.42442,3.675542 0.14948,7.40969 0.2146,11.125556 0.021,2.080842 -0.18416,4.187411 0.1311,6.251206 0.83475,3.933983 4.75046,6.842163 8.73807,6.710777 3.92492,0.07612 7.7849,-1.663959 10.50583,-4.46003 0.68674,2.126462 2.41037,4.056392 4.716,4.355178 2.53739,0.403425 5.05217,-0.512909 7.36212,-1.468459 0.40635,-0.2931 1.22687,-0.433869 1.06641,-1.073047 0,-0.726302 0,-1.452604 0,-2.178906 -1.43851,-0.0091 -3.33362,0.04266 -4.13086,-1.414063 -0.96331,-2.66658 -0.51629,-5.551768 -0.62597,-8.323827 -0.0284,-4.6095 0.12285,-9.221573 0.0636,-13.829016 -0.0986,-1.986826 -1.01466,-4.245602 -3.06906,-4.889651 -0.9075,-0.331051 -1.88687,-0.442768 -2.84907,-0.383287 z"
           style="fill:#ffeeaa;stroke-width:0.0856515" /></g></g></g></svg>
